<svg width="24" height="24" viewBox="0 0 24 24" fill="none" xmlns="http://www.w3.org/2000/svg">
<path d="M9.5 8.50317C9.5 9.60774 8.60457 10.5032 7.5 10.5032C6.39543 10.5032 5.5 9.60774 5.5 8.50317C5.5 7.3986 6.39543 6.50317 7.5 6.50317C8.60457 6.50317 9.5 7.3986 9.5 8.50317Z" fill="#6895FF"/>
<path d="M18.5 1.25317C18.8138 1.25317 19.0945 1.44857 19.2034 1.74289L19.4613 2.43992C19.8233 3.41827 19.9388 3.68408 20.1289 3.87423C20.3191 4.06438 20.5849 4.17984 21.5633 4.54186L22.2603 4.79978C22.5546 4.90869 22.75 5.18934 22.75 5.50317C22.75 5.817 22.5546 6.09765 22.2603 6.20656L21.5633 6.46448C20.5849 6.8265 20.3191 6.94196 20.1289 7.13211C19.9388 7.32226 19.8233 7.58807 19.4613 8.56642L19.2034 9.26345C19.0945 9.55777 18.8138 9.75317 18.5 9.75317C18.1862 9.75317 17.9055 9.55777 17.7966 9.26345L17.5387 8.56642C17.1767 7.58807 17.0612 7.32226 16.8711 7.13211C16.6809 6.94196 16.4151 6.8265 15.4367 6.46448L14.7397 6.20656C14.4454 6.09765 14.25 5.817 14.25 5.50317C14.25 5.18934 14.4454 4.90869 14.7397 4.79978L15.4367 4.54186C16.4151 4.17984 16.6809 4.06438 16.8711 3.87423C17.0612 3.68408 17.1767 3.41827 17.5387 2.43992L17.7966 1.74289C17.9055 1.44857 18.1862 1.25317 18.5 1.25317Z" fill="#6895FF"/>
<path opacity="0.4" fill-rule="evenodd" clip-rule="evenodd" d="M11.5015 2.25317H11.4273C9.30315 2.25315 7.60973 2.25313 6.28198 2.43164C4.91104 2.61596 3.78471 3.00654 2.89404 3.89721C2.00337 4.78788 1.61279 5.91421 1.42847 7.28515C1.24996 8.6129 1.24998 10.3063 1.25 12.4305V12.5759C1.24998 14.7001 1.24996 16.3935 1.42847 17.7212C1.61279 19.0922 2.00337 20.2185 2.89404 21.1092C3.78471 21.9998 4.91104 22.3904 6.28198 22.5747C7.60974 22.7532 9.30317 22.7532 11.4274 22.7532H11.5727C13.6968 22.7532 15.3903 22.7532 16.718 22.5747C18.089 22.3904 19.2153 21.9998 20.106 21.1092C20.9966 20.2185 21.3872 19.0922 21.5715 17.7212C21.75 16.3935 21.75 14.7 21.75 12.5759V12.5019C21.75 11.9849 21.75 11.4955 21.7477 11.0341C21.7451 10.495 21.3059 10.0601 20.7667 10.0627C20.2276 10.0654 19.7927 10.5046 19.7954 11.0437C19.7976 11.4998 19.7976 11.9846 19.7976 12.5032C19.7976 12.8022 19.7976 13.0893 19.7971 13.3652C13.7051 10.3944 9.3109 15.6837 5.41613 20.3986C4.91695 20.2359 4.56206 20.0161 4.27458 19.7286C3.80713 19.2612 3.51865 18.6155 3.36344 17.4611C3.20446 16.2785 3.20238 14.7167 3.20238 12.5032C3.20238 10.2897 3.20446 8.72783 3.36344 7.5453C3.51865 6.39086 3.80713 5.7452 4.27458 5.27775C4.74203 4.8103 5.38769 4.52182 6.54213 4.36661C7.72466 4.20763 9.28655 4.20555 11.5 4.20555C12.0186 4.20555 12.5034 4.20555 12.9595 4.2078C13.4986 4.21046 13.9378 3.77556 13.9405 3.23643C13.9431 2.6973 13.5082 2.2581 12.9691 2.25544C12.5078 2.25317 12.0184 2.25317 11.5015 2.25317Z" fill="#6895FF"/>
</svg>
