<svg width="20" height="20" viewBox="0 0 20 20" fill="none" xmlns="http://www.w3.org/2000/svg">
<path d="M9.58366 5C5.85171 5 3.98573 5 2.82636 5.97631C1.66699 6.95262 1.66699 8.524 1.66699 11.6667C1.66699 14.8093 1.66699 16.3807 2.82636 17.357C3.98573 18.3333 5.85171 18.3333 9.58366 18.3333C13.3156 18.3333 15.1816 18.3333 16.341 17.357C17.5003 16.3807 17.5003 14.8093 17.5003 11.6667C17.5003 10.6918 17.5003 9.86825 17.4657 9.16667" stroke="#0E121B" stroke-width="1.25" stroke-linecap="round"/>
<path opacity="0.4" d="M15.4167 1.66669L15.6316 2.24755C15.9134 3.0092 16.0543 3.39004 16.3322 3.66785C16.61 3.94566 16.9908 4.08658 17.7525 4.36842L18.3333 4.58335L17.7525 4.79829C16.9908 5.08013 16.61 5.22105 16.3322 5.49886C16.0543 5.77667 15.9134 6.1575 15.6316 6.91916L15.4167 7.50002L15.2017 6.91916C14.9199 6.1575 14.779 5.77667 14.5012 5.49886C14.2233 5.22105 13.8425 5.08013 13.0808 4.79829L12.5 4.58335L13.0808 4.36842C13.8425 4.08658 14.2233 3.94566 14.5012 3.66785C14.779 3.39004 14.9199 3.0092 15.2017 2.24755L15.4167 1.66669Z" stroke="#0E121B" stroke-width="1.25" stroke-linejoin="round"/>
<path d="M12.917 10L13.9391 10.881C14.3688 11.2513 14.5837 11.4366 14.5837 11.6667C14.5837 11.8967 14.3688 12.082 13.9391 12.4523L12.917 13.3333" stroke="#0E121B" stroke-width="1.25" stroke-linecap="round" stroke-linejoin="round"/>
<path d="M6.24967 10L5.22756 10.881C4.79786 11.2513 4.58301 11.4366 4.58301 11.6667C4.58301 11.8967 4.79786 12.082 5.22756 12.4523L6.24967 13.3333" stroke="#0E121B" stroke-width="1.25" stroke-linecap="round" stroke-linejoin="round"/>
<path d="M10.4167 9.16669L8.75 14.1667" stroke="#0E121B" stroke-width="1.25" stroke-linecap="round" stroke-linejoin="round"/>
</svg>
