<svg width="24" height="24" viewBox="0 0 24 24" fill="none" xmlns="http://www.w3.org/2000/svg">
<path opacity="0.4" fill-rule="evenodd" clip-rule="evenodd" d="M3.25 11.531C3.25 7.23544 6.73223 3.7532 11.0278 3.7532C11.5647 3.7532 12 4.18848 12 4.72543C12 5.26237 11.5647 5.69765 11.0278 5.69765C7.80611 5.69765 5.19444 8.30933 5.19444 11.531C5.19444 14.7527 7.80611 17.3644 11.0278 17.3644C14.2495 17.3644 16.8611 14.7527 16.8611 11.531C16.8611 10.9941 17.2964 10.5588 17.8333 10.5588C18.3703 10.5588 18.8056 10.9941 18.8056 11.531C18.8056 13.3284 18.1959 14.9833 17.1721 16.3004L20.4653 19.5935C20.8449 19.9732 20.8449 20.5888 20.4653 20.9685C20.0856 21.3482 19.47 21.3482 19.0903 20.9685L15.7972 17.6753C14.4801 18.6992 12.8252 19.3088 11.0278 19.3088C6.73223 19.3088 3.25 15.8266 3.25 11.531Z" fill="#7D52F4"/>
<path d="M15.5 2.7532C15.8138 2.7532 16.0945 2.9486 16.2034 3.24292L16.4613 3.93995C16.8233 4.9183 16.9388 5.18411 17.1289 5.37426C17.3191 5.56441 17.5849 5.67987 18.5633 6.04189L19.2603 6.29981C19.5546 6.40872 19.75 6.68937 19.75 7.0032C19.75 7.31703 19.5546 7.59768 19.2603 7.70659L18.5633 7.96451C17.5849 8.32653 17.3191 8.44199 17.1289 8.63214C16.9388 8.82229 16.8233 9.0881 16.4613 10.0665L16.2034 10.7635C16.0945 11.0578 15.8138 11.2532 15.5 11.2532C15.1862 11.2532 14.9055 11.0578 14.7966 10.7635L14.5387 10.0665C14.1767 9.0881 14.0612 8.82229 13.8711 8.63214C13.6809 8.44199 13.4151 8.32653 12.4367 7.96451L11.7397 7.70659C11.4454 7.59768 11.25 7.31703 11.25 7.0032C11.25 6.68937 11.4454 6.40872 11.7397 6.29981L12.4367 6.04189C13.4151 5.67987 13.6809 5.56441 13.8711 5.37426C14.0612 5.18411 14.1767 4.9183 14.5387 3.93995L14.7966 3.24292C14.9055 2.9486 15.1862 2.7532 15.5 2.7532Z" fill="#7D52F4"/>
</svg>
