<svg width="37" height="37" viewBox="0 0 37 37" fill="none" xmlns="http://www.w3.org/2000/svg">
<rect width="37" height="37" fill="url(#paint0_linear_43_1721)"/>
<path d="M17.5264 10.375C15.6295 10.375 14.1074 11.8814 14.1074 13.7206V18.2267L15.5864 19.0975L15.5861 14.3605C15.5861 14.1883 15.6787 14.0295 15.8285 13.9446L20.0469 11.5549C20.066 11.5441 20.0851 11.5334 20.1043 11.523C19.4781 10.8202 18.5564 10.375 17.5264 10.375Z" fill="white"/>
<path d="M25.4619 16.3764C25.7743 15.492 25.7078 14.4862 25.1938 13.6126C24.2521 12.0123 22.1586 11.4573 20.5181 12.3866L16.542 14.639L16.5421 16.21L20.7073 13.9413C20.8523 13.8623 21.0278 13.8637 21.1715 13.9451L25.39 16.3348C25.4141 16.3485 25.4381 16.3624 25.4619 16.3764Z" fill="white"/>
<path d="M16.542 17.2984L16.5422 19.6603L18.4609 20.7898L20.5074 19.6751L20.5466 17.3917L18.5398 16.2102L16.542 17.2984Z" fill="white"/>
<path d="M19.5186 15.6772L23.614 18.0882C23.7599 18.174 23.8495 18.3307 23.8495 18.5V23.2794C23.8495 23.3023 23.8492 23.3252 23.8489 23.3479C24.7937 23.1705 25.6536 22.6068 26.1687 21.7313C27.1072 20.1365 26.5541 18.0929 24.9187 17.1665L20.9313 14.9077L19.5186 15.6772Z" fill="white"/>
<path d="M21.493 17.9489L21.4124 22.6472C21.4096 22.8165 21.3174 22.9715 21.1702 23.0549L16.9517 25.4447C16.933 25.4552 16.9143 25.4657 16.8955 25.4759C17.5216 26.1793 18.4438 26.625 19.4743 26.625C21.3712 26.625 22.8933 25.1187 22.8933 23.2794V18.7732L21.493 17.9489Z" fill="white"/>
<path d="M20.4881 20.7738L16.2927 23.0591C16.1476 23.1381 15.9721 23.1366 15.8284 23.0551L11.6099 20.6655C11.5852 20.6515 11.5607 20.6373 11.5364 20.6229C11.2239 21.5073 11.2903 22.5133 11.8044 23.3869C12.7461 24.9872 14.8396 25.5422 16.4801 24.6129L20.461 22.3578L20.4881 20.7738Z" fill="white"/>
<path d="M17.4821 21.3229L15.8379 20.355C15.8271 20.3492 15.8166 20.343 15.8064 20.3364L13.3866 18.9118C13.2407 18.826 13.1511 18.6693 13.1511 18.5V13.7206C13.1511 13.6978 13.1513 13.675 13.1517 13.6523C12.2067 13.8296 11.3467 14.3933 10.8315 15.269C9.89302 16.8638 10.4462 18.9074 12.0815 19.8338L16.0689 22.0926L17.4821 21.3229Z" fill="white"/>
<defs>
<linearGradient id="paint0_linear_43_1721" x1="36.3833" y1="1.5102" x2="-6.19205" y2="22.4166" gradientUnits="userSpaceOnUse">
<stop stop-color="#4D8AF1"/>
<stop offset="1" stop-color="#A090E9"/>
</linearGradient>
</defs>
</svg>
