<svg width="24" height="24" viewBox="0 0 24 24" fill="none" xmlns="http://www.w3.org/2000/svg">
<path fill-rule="evenodd" clip-rule="evenodd" d="M6 12.0032C6 11.3128 6.55964 10.7532 7.25 10.7532H7.25897C7.94933 10.7532 8.50897 11.3128 8.50897 12.0032C8.50897 12.6936 7.94933 13.2532 7.25897 13.2532H7.25C6.55964 13.2532 6 12.6936 6 12.0032ZM10.7456 12.0032C10.7456 11.3128 11.3052 10.7532 11.9956 10.7532H12.0045C12.6949 10.7532 13.2545 11.3128 13.2545 12.0032C13.2545 12.6936 12.6949 13.2532 12.0045 13.2532H11.9956C11.3052 13.2532 10.7456 12.6936 10.7456 12.0032ZM15.4911 12.0032C15.4911 11.3128 16.0507 10.7532 16.7411 10.7532H16.75C17.4404 10.7532 18 11.3128 18 12.0032C18 12.6936 17.4404 13.2532 16.75 13.2532H16.7411C16.0507 13.2532 15.4911 12.6936 15.4911 12.0032Z" fill="#FB3748"/>
<path opacity="0.4" fill-rule="evenodd" clip-rule="evenodd" d="M17 3.00316C17 2.45088 17.4477 2.00316 18 2.00316C19.913 2.00316 21.231 3.74018 21.231 5.57459C21.231 5.70686 21.2308 5.83455 21.2305 5.95809C21.2286 6.93257 21.2271 7.64914 21.3561 8.32273C21.4902 9.02348 21.7711 9.68084 22.4286 10.4387C23.1905 11.3168 23.1905 12.6896 22.4286 13.5677C21.7711 14.3255 21.4902 14.9829 21.3561 15.6836C21.2271 16.3572 21.2286 17.0738 21.2305 18.0482C21.2308 18.1718 21.231 18.2995 21.231 18.4318C21.231 20.2662 19.913 22.0032 18 22.0032C17.4477 22.0032 17 21.5555 17 21.0032C17 20.4509 17.4477 20.0032 18 20.0032C18.5513 20.0032 19.231 19.4377 19.231 18.4318C19.231 18.3041 19.2306 18.1767 19.2302 18.0495C19.2271 17.1087 19.224 16.1837 19.3917 15.3076C19.5932 14.2549 20.0334 13.2765 20.9179 12.257C21.0274 12.1309 21.0274 11.8755 20.9179 11.7494C20.0334 10.7299 19.5932 9.75139 19.3917 8.6987C19.224 7.82263 19.2271 6.89764 19.2302 5.95683C19.2306 5.82968 19.231 5.70224 19.231 5.57459C19.231 4.56868 18.5513 4.00316 18 4.00316C17.4477 4.00316 17 3.55545 17 3.00316Z" fill="#FB3748"/>
<path opacity="0.4" fill-rule="evenodd" clip-rule="evenodd" d="M7 3.00316C7 2.45088 6.55228 2.00316 6 2.00316C4.08695 2.00316 2.76897 3.74018 2.76897 5.57459C2.76897 5.636 2.76899 5.69658 2.76902 5.75636C2.76989 7.94634 2.77033 9.05682 1.57139 10.4387C0.809534 11.3168 0.809536 12.6896 1.5714 13.5677C2.22892 14.3255 2.50982 14.9829 2.64394 15.6836C2.77287 16.3572 2.77143 17.0738 2.76947 18.0482C2.76923 18.1718 2.76897 18.2995 2.76897 18.4318C2.76897 20.2662 4.08695 22.0032 6 22.0032C6.55228 22.0032 7 21.5555 7 21.0032C7 20.4509 6.55228 20.0032 6 20.0032C5.44872 20.0032 4.76897 19.4377 4.76897 18.4318C4.76897 18.3041 4.76939 18.1767 4.76981 18.0495C4.77291 17.1087 4.77596 16.1837 4.60829 15.3076C4.4068 14.2549 3.96658 13.2765 3.08206 12.257C2.97265 12.1309 2.97265 11.8755 3.08206 11.7494C4.77803 9.79463 4.77405 7.989 4.76945 5.9045C4.76921 5.79532 4.76897 5.68537 4.76897 5.57459C4.76897 4.56868 5.44872 4.00316 6 4.00316C6.55228 4.00316 7 3.55545 7 3.00316Z" fill="#FB3748"/>
</svg>
