<svg width="20" height="20" viewBox="0 0 20 20" fill="none" xmlns="http://www.w3.org/2000/svg">
<path fill-rule="evenodd" clip-rule="evenodd" d="M10.8376 11.0417C10.8376 10.5814 10.4645 10.2083 10.0042 10.2083C9.54399 10.2083 9.1709 10.5814 9.1709 11.0417L9.1709 14.7917L8.67568 14.7917C8.52932 14.7916 8.34961 14.7915 8.20258 14.8098L8.19979 14.8102C8.09442 14.8233 7.61438 14.8832 7.38575 15.3545C7.15661 15.8269 7.40822 16.2437 7.46266 16.3338L7.46469 16.3372C7.54153 16.4647 7.65332 16.6071 7.74528 16.7242L7.76506 16.7494C8.01058 17.0626 8.32889 17.4661 8.64592 17.792C8.80411 17.9546 8.98516 18.1223 9.17758 18.2546C9.34863 18.3723 9.64046 18.5417 9.99935 18.5417C10.3582 18.5417 10.6501 18.3723 10.8211 18.2546C11.0135 18.1223 11.1946 17.9546 11.3528 17.792C11.6698 17.4661 11.9881 17.0626 12.2336 16.7494L12.2534 16.7242C12.3454 16.6071 12.4572 16.4647 12.534 16.3372L12.536 16.3338C12.5905 16.2437 12.8421 15.8269 12.613 15.3545C12.3843 14.8832 11.9043 14.8233 11.7989 14.8102L11.7961 14.8098C11.6491 14.7915 11.4694 14.7916 11.323 14.7917L10.8376 14.7917L10.8376 11.0417Z" fill="#0E121B"/>
<path opacity="0.4" d="M1.04102 10.4167C1.04102 8.21521 2.52523 6.361 4.54789 5.79932C4.71122 5.75396 4.79288 5.73129 4.83995 5.68307C4.88702 5.63487 4.9076 5.5532 4.94878 5.38986C5.51828 3.13044 7.56328 1.45833 9.99935 1.45833C12.6784 1.45833 14.885 3.48109 15.1753 6.08269C15.1981 6.28716 15.2095 6.38941 15.2616 6.44856C15.3137 6.50772 15.4151 6.53233 15.618 6.58154C17.5345 7.04657 18.9577 8.77375 18.9577 10.8333C18.9577 13.2496 16.9989 15.2083 14.5827 15.2083H14.5328C14.3498 15.2083 14.2583 15.2083 14.1954 15.1665C14.1325 15.1247 14.0897 15.0226 14.0041 14.8184C13.8988 14.5673 13.7423 14.3328 13.5347 14.1311C13.2585 13.8626 12.927 13.6861 12.578 13.6011C12.319 13.5379 12.1895 13.5064 12.1361 13.4384C12.0827 13.3704 12.0827 13.2608 12.0827 13.0416V11.0417C12.0827 9.89107 11.1499 8.95833 9.99935 8.95833C8.84876 8.95833 7.91602 9.89107 7.91602 11.0417L7.91602 13.0416C7.91602 13.2608 7.91602 13.3704 7.86261 13.4384C7.80921 13.5064 7.67971 13.5379 7.4207 13.6011C7.07172 13.6861 6.74016 13.8626 6.46395 14.1311C6.25547 14.3337 6.07978 14.5694 5.96208 14.8217C5.865 15.0299 5.81646 15.134 5.74844 15.1734C5.68042 15.2128 5.59502 15.2056 5.42422 15.1912C2.96904 14.9839 1.04102 12.9254 1.04102 10.4167Z" fill="#0E121B"/>
</svg>
