<svg width="20" height="20" viewBox="0 0 20 20" fill="none" xmlns="http://www.w3.org/2000/svg">
<g clip-path="url(#clip0_31_20045)">
<path d="M19.2742 10.1778C19.2742 9.39933 19.2111 8.83129 19.0744 8.24222H10.1855V11.7556H15.4031C15.2979 12.6288 14.7299 13.9437 13.4675 14.8272L13.4498 14.9449L16.2603 17.1221L16.455 17.1415C18.2433 15.49 19.2742 13.06 19.2742 10.1778Z" fill="#4285F4"/>
<path d="M10.1841 19.4347C12.7403 19.4347 14.8862 18.5932 16.4536 17.1415L13.4661 14.8272C12.6666 15.3848 11.5937 15.774 10.1841 15.774C7.68052 15.774 5.55564 14.1225 4.79818 11.8398L4.68715 11.8492L1.76478 14.1109L1.72656 14.2171C3.2834 17.3098 6.48128 19.4347 10.1841 19.4347Z" fill="#34A853"/>
<path d="M4.79824 11.8398C4.59838 11.2507 4.48271 10.6195 4.48271 9.96736C4.48271 9.31513 4.59838 8.68399 4.78773 8.09492L4.78243 7.96946L1.82344 5.67148L1.72663 5.71753C1.08498 7.0009 0.716797 8.44207 0.716797 9.96736C0.716797 11.4927 1.08498 12.9338 1.72663 14.2171L4.79824 11.8398Z" fill="#FBBC05"/>
<path d="M10.1841 4.16069C11.9618 4.16069 13.161 4.9286 13.8448 5.57032L16.5167 2.96152C14.8757 1.43622 12.7403 0.5 10.1841 0.5C6.48128 0.5 3.2834 2.62488 1.72656 5.71753L4.78767 8.09492C5.55564 5.81224 7.68052 4.16069 10.1841 4.16069Z" fill="#EB4335"/>
</g>
<defs>
<clipPath id="clip0_31_20045">
<rect width="19" height="19" fill="white" transform="translate(0.5 0.5)"/>
</clipPath>
</defs>
</svg>
