<svg width="20" height="20" viewBox="0 0 20 20" fill="none" xmlns="http://www.w3.org/2000/svg">
<path fill-rule="evenodd" clip-rule="evenodd" d="M5.57302 18.3912C6.69254 18.5417 8.12644 18.5417 9.95201 18.5417H10.0473C11.8729 18.5417 13.3068 18.5417 14.4263 18.3912C15.5735 18.2369 16.4838 17.9144 17.1989 17.1993C17.9141 16.4841 18.2366 15.5738 18.3908 14.4267C18.5413 13.3072 18.5413 11.8733 18.5413 10.0477V9.95234C18.5413 8.12678 18.5413 6.69288 18.3908 5.57336C18.2366 4.42615 17.9141 3.51594 17.1989 2.80077C16.4838 2.0856 15.5735 1.76308 14.4263 1.60884C13.3068 1.45833 11.8729 1.45834 10.0473 1.45834H9.95201C8.12642 1.45834 6.69254 1.45833 5.57302 1.60884C4.42582 1.76308 3.5156 2.0856 2.80043 2.80077C2.08527 3.51594 1.76274 4.42615 1.6085 5.57336C1.45799 6.69288 1.458 8.12676 1.45801 9.95234V10.0477C1.458 11.8733 1.45799 13.3072 1.6085 14.4267C1.76274 15.5738 2.08527 16.4841 2.80043 17.1993C3.5156 17.9144 4.42582 18.2369 5.57302 18.3912ZM7.61036 14.7613C7.9388 15.0838 8.46642 15.0788 8.78884 14.7504C8.94809 14.5882 9.02751 14.3773 9.02742 14.1667L9.02734 13.1303L9.04017 13.1284C11.6185 12.7366 13.6738 10.7885 14.0908 8.26285C14.1665 7.80389 14.1664 7.27367 14.1663 6.42601V6.33589V5.83334C14.1663 5.3731 13.7933 5.00001 13.333 5.00001C12.8728 5.00001 12.4997 5.3731 12.4997 5.83334V6.33589C12.4997 7.30277 12.4968 7.68517 12.4463 7.99143C12.1656 9.69201 10.814 11.0712 9.02709 11.4383L9.02701 10.5938C9.03434 10.3739 8.95509 10.1515 8.78884 9.98218C8.46642 9.65368 7.9388 9.64884 7.61036 9.97118L6.29917 11.2583C5.989 11.5628 5.83362 11.9633 5.83301 12.3639V12.3664V12.3688C5.83363 12.7693 5.98902 13.1698 6.29917 13.4743L7.61036 14.7613Z" fill="#CACFD8"/>
</svg>
