<svg width="20" height="20" viewBox="0 0 20 20" fill="none" xmlns="http://www.w3.org/2000/svg">
<path fill-rule="evenodd" clip-rule="evenodd" d="M5.57366 18.3912C6.69316 18.5417 8.12707 18.5417 9.95266 18.5417L10.048 18.5417C11.8736 18.5417 13.3075 18.5417 14.427 18.3912C15.5742 18.2369 16.4844 17.9144 17.1996 17.1992C17.9147 16.4841 18.2373 15.5738 18.3915 14.4266C18.542 13.3071 18.542 11.8732 18.542 10.0477L18.542 9.95232C18.542 8.12674 18.542 6.69282 18.3915 5.57332C18.2373 4.42616 17.9147 3.51591 17.1996 2.80074C16.4844 2.08557 15.5742 1.76307 14.427 1.60882C13.3075 1.45832 11.8736 1.45832 10.048 1.45832L9.95266 1.45832C8.12708 1.45832 6.69316 1.45832 5.57366 1.60882C4.42649 1.76307 3.51624 2.08557 2.80108 2.80074C2.08591 3.5159 1.76341 4.42615 1.60916 5.57332C1.45866 6.69282 1.45866 8.12674 1.45866 9.95232L1.45866 10.0477C1.45866 11.8732 1.45866 13.3071 1.60916 14.4266C1.76341 15.5738 2.08591 16.4841 2.80108 17.1992C3.51624 17.9144 4.42649 18.2369 5.57366 18.3912ZM9.94816 9.61682C9.96924 9.60732 9.98649 9.60016 10.0002 9.59491C10.014 9.60016 10.0313 9.60732 10.0524 9.61682C10.1484 9.66024 10.2756 9.73207 10.4314 9.83532C10.7424 10.0414 11.1011 10.3279 11.4517 10.6307C11.7987 10.9305 12.1217 11.2323 12.3589 11.4602L12.739 11.8339C13.0615 12.1622 13.5892 12.1671 13.9175 11.8446C14.2459 11.5222 14.2507 10.9946 13.9282 10.6662L13.5138 10.2586C13.2632 10.0178 12.9176 9.69457 12.5411 9.36941C12.1681 9.04724 11.7484 8.70865 11.3521 8.44607C11.1542 8.31491 10.9454 8.19149 10.7391 8.09816C10.5473 8.01149 10.285 7.91674 10.0002 7.91674C9.71558 7.91674 9.45324 8.01149 9.26149 8.09816C9.05516 8.19149 8.84633 8.31491 8.64849 8.44607C8.25216 8.70865 7.83241 9.04724 7.45941 9.36941C7.08299 9.69457 6.73733 10.0178 6.48683 10.2586L6.07233 10.6662C5.74983 10.9946 5.75466 11.5222 6.08299 11.8446C6.41141 12.1671 6.93908 12.1622 7.26149 11.8339L7.64166 11.4602C7.87891 11.2323 8.20183 10.9305 8.54891 10.6307C8.89949 10.3279 9.25816 10.0414 9.56916 9.83532C9.72499 9.73207 9.85216 9.66024 9.94816 9.61682Z" fill="#CACFD8"/>
</svg>
