<svg width="24" height="24" viewBox="0 0 24 24" fill="none" xmlns="http://www.w3.org/2000/svg">
<path opacity="0.4" d="M12.5564 1.25317C14.3941 1.25315 15.8497 1.25314 16.989 1.40631C18.1614 1.56393 19.1103 1.89605 19.8587 2.64441C20.6071 3.39278 20.9392 4.34173 21.0968 5.51415C21.25 6.65335 21.2499 8.10897 21.2499 9.94671V14.0596C21.2499 15.8973 21.25 17.353 21.0968 18.4922C20.9392 19.6646 20.6071 20.6136 19.8587 21.362C19.1103 22.1103 18.1614 22.4424 16.989 22.6001C15.8497 22.7532 14.3941 22.7532 12.5564 22.7532H11.4436C9.60589 22.7532 8.15016 22.7532 7.01094 22.6001C5.83851 22.4424 4.88956 22.1103 4.14119 21.3619C3.39283 20.6136 3.06072 19.6646 2.9031 18.4922C2.74994 17.353 2.74997 15.8973 2.75 14.0596L2.75004 9.94668C2.75004 8.10893 2.75004 6.65331 2.90321 5.51411C3.06085 4.34169 3.39297 3.39275 4.14133 2.6444C4.88969 1.89604 5.83863 1.56393 7.01105 1.4063C8.15025 1.25314 9.60587 1.25315 11.4436 1.25317H12.5564Z" fill="#FF8447"/>
<path fill-rule="evenodd" clip-rule="evenodd" d="M7 7.00317C7 6.45089 7.44772 6.00317 8 6.00317H16C16.5523 6.00317 17 6.45089 17 7.00317C17 7.55545 16.5523 8.00317 16 8.00317H8C7.44772 8.00317 7 7.55545 7 7.00317ZM7 12.0032C7 11.4509 7.44772 11.0032 8 11.0032H16C16.5523 11.0032 17 11.4509 17 12.0032C17 12.5555 16.5523 13.0032 16 13.0032H8C7.44772 13.0032 7 12.5555 7 12.0032ZM7 17.0032C7 16.4509 7.44772 16.0032 8 16.0032H12C12.5523 16.0032 13 16.4509 13 17.0032C13 17.5555 12.5523 18.0032 12 18.0032H8C7.44771 18.0032 7 17.5555 7 17.0032Z" fill="#FF8447"/>
</svg>
