<svg width="67" height="68" viewBox="0 0 67 68" fill="none" xmlns="http://www.w3.org/2000/svg">
<rect y="0.5" width="67" height="67" rx="12" fill="url(#paint0_linear_31_20079)"/>
<g clip-path="url(#clip0_31_20079)">
<path fill-rule="evenodd" clip-rule="evenodd" d="M14.5416 28.6424C13.5059 31.2006 13.2349 34.0155 13.763 36.7313C14.291 39.447 15.5943 41.9416 17.508 43.8995C19.4218 45.8574 21.8601 47.1908 24.5145 47.731C27.1691 48.2712 29.9205 47.9939 32.421 46.9343C34.9214 45.8747 37.0586 44.0802 38.5622 41.778C38.6023 41.7166 38.6419 41.6549 38.681 41.5929C38.7086 41.5492 38.736 41.5052 38.7632 41.4611V48H39.8158C42.5223 48 45.168 47.1789 47.4183 45.6405C49.6687 44.1023 51.4226 41.9157 52.4583 39.3575C53.4941 36.7994 53.7651 33.9845 53.237 31.2687C52.709 28.553 51.4058 26.0584 49.492 24.1005C47.5782 22.1426 45.1399 20.8092 42.4855 20.269C39.8309 19.7288 37.0795 20.0061 34.579 21.0657C32.0786 22.1253 29.9414 23.9198 28.4378 26.222C28.3694 26.3268 28.3024 26.4325 28.2368 26.5389V20H27.1842C24.4777 20 21.832 20.8211 19.5817 22.3595C17.3313 23.8977 15.5774 26.0842 14.5416 28.6424ZM26.1316 34V22.2029C24.213 22.3821 22.3624 23.049 20.7513 24.1503C18.8471 25.4519 17.3631 27.3021 16.4867 29.4667C15.6103 31.6313 15.381 34.0131 15.8278 36.3111C16.2745 38.609 17.3774 40.7198 18.9966 42.3765C20.616 44.0332 22.6792 45.1614 24.9253 45.6185C27.1714 46.0756 29.4995 45.841 31.6153 44.9444C33.6461 44.0838 35.3937 42.6504 36.6559 40.814C35.6993 41.2786 34.6293 41.5385 33.5 41.5385C29.4306 41.5385 26.1316 38.1633 26.1316 34ZM40.8684 45.7971V34C40.8684 29.8366 37.5694 26.4615 33.5 26.4615C32.3707 26.4615 31.3007 26.7214 30.3441 27.186C31.6063 25.3496 33.3539 23.9161 35.3847 23.0556C37.5005 22.159 39.8286 21.9244 42.0747 22.3815C44.3208 22.8386 46.384 23.9668 48.0034 25.6235C49.6227 27.2802 50.7255 29.391 51.1722 31.6889C51.619 33.9869 51.3897 36.3687 50.5133 38.5333C49.637 40.6979 48.1529 42.5481 46.2487 43.8497C44.6376 44.951 42.787 45.6179 40.8684 45.7971ZM33.3947 39.3836C30.5715 39.3269 28.2933 36.996 28.2379 34.1077H30.2291C31.7999 34.474 33.0365 35.739 33.3947 37.3461V39.3836ZM33.6052 39.3836C36.4284 39.3269 38.7067 36.996 38.7621 34.1077H36.7709C35.1999 34.474 33.9633 35.7392 33.6052 37.3465V39.3836ZM38.7621 33.8923C38.7067 31.004 36.4284 28.6731 33.6052 28.6164V30.6535C33.9633 32.2607 35.1998 33.5259 36.7706 33.8923H38.7621ZM33.3947 28.6164C30.5716 28.6731 28.2933 31.004 28.2379 33.8923H30.2294C31.8001 33.5259 33.0366 32.2609 33.3947 30.6539V28.6164Z" fill="white"/>
</g>
<defs>
<linearGradient id="paint0_linear_31_20079" x1="6" y1="9" x2="125" y2="106" gradientUnits="userSpaceOnUse">
<stop stop-color="#335CFF"/>
<stop offset="1" stop-color="#97BAFF"/>
</linearGradient>
<clipPath id="clip0_31_20079">
<rect width="40" height="28" fill="white" transform="translate(13.5 20)"/>
</clipPath>
</defs>
</svg>
