<svg width="24" height="24" viewBox="0 0 24 24" fill="none" xmlns="http://www.w3.org/2000/svg">
<path opacity="0.4" d="M20.2033 14.6502C21.0752 14.4822 21.5111 14.3982 21.6606 14.5495C21.6782 14.5673 21.6891 14.5804 21.7034 14.6009C21.8254 14.7752 21.6974 15.1036 21.4414 15.7605C19.9607 19.5605 16.2657 22.2532 11.9417 22.2532C6.313 22.2532 1.75 17.6902 1.75 12.0614C1.75 7.73748 4.44269 4.04245 8.24269 2.5617C8.89947 2.30578 9.22786 2.17782 9.40211 2.29973C9.42264 2.31409 9.43574 2.32502 9.45357 2.34262C9.60489 2.49205 9.52088 2.92797 9.35287 3.7998C9.20681 4.55771 9.20711 5.44556 9.20739 6.25239C9.20757 6.77353 9.20752 7.29467 9.20747 7.81581C9.20744 8.06418 9.20742 8.31255 9.20742 8.56092L9.20741 8.63742C9.2073 9.48456 9.20719 10.3274 9.3015 11.0288C9.40887 11.8275 9.67386 12.7656 10.4557 13.5474C11.2375 14.3292 12.1756 14.5942 12.9743 14.7016C13.6754 14.7959 14.5177 14.7958 15.3643 14.7957C15.3903 14.7957 15.4162 14.7957 15.4421 14.7957H17.6603C17.6903 14.7957 17.7203 14.7957 17.7505 14.7957C18.5574 14.796 19.4453 14.7963 20.2033 14.6502Z" fill="#F6B51E"/>
<path d="M15.6832 2.40389L15.6186 2.37711C14.9933 2.11795 14.4114 1.87677 13.872 1.78998C13.2434 1.68883 12.6693 1.79108 12.0723 2.15973C12.0239 2.18961 11.9523 2.23743 11.9062 2.2707C11.2955 2.71121 11.0024 3.28685 10.8691 3.97825C10.7498 4.59744 10.7499 5.36645 10.75 6.25184V8.48273C10.7499 9.39818 10.7499 10.1602 10.8312 10.7649C10.9169 11.4025 11.1053 11.9763 11.566 12.4371C12.0268 12.8978 12.6005 13.0862 13.2382 13.1719C13.8428 13.2532 14.6048 13.2532 15.5203 13.2531H17.7512C18.6366 13.2532 19.4056 13.2533 20.0248 13.134C20.7162 13.0007 21.2918 12.7076 21.7324 12.0969C21.7656 12.0508 21.8135 11.9792 21.8433 11.9308C22.212 11.3338 22.3142 10.7597 22.2131 10.1311C22.1263 9.59168 21.8851 9.00977 21.626 8.3845L21.5992 8.31987C21.0498 6.99362 20.2446 5.78857 19.2296 4.7735C18.2145 3.75844 17.0094 2.95324 15.6832 2.40389Z" fill="#F6B51E"/>
</svg>
