<svg width="20" height="20" viewBox="0 0 20 20" fill="none" xmlns="http://www.w3.org/2000/svg">
<path d="M17.9974 2.11881C17.6079 1.69932 16.9972 1.5422 16.4137 1.48595C15.8006 1.42686 15.0663 1.46616 14.2758 1.56985C12.6903 1.77781 10.7748 2.25919 8.93484 2.85147C7.09369 3.44413 5.29896 4.15721 3.9549 4.84039C3.28597 5.1804 2.70579 5.52444 2.28402 5.85489C2.074 6.01943 1.88236 6.19667 1.7382 6.38531C1.6007 6.56525 1.45604 6.82125 1.45803 7.12985C1.46325 7.93992 2.01492 8.51242 2.6024 8.89667C3.20204 9.28892 3.98299 9.5845 4.75935 9.816C5.54404 10.05 6.36923 10.2313 7.07862 10.3783C7.12511 10.3879 7.21804 10.4072 7.3319 10.4307C7.7607 10.5193 7.9751 10.5636 8.17665 10.5033C8.37818 10.4429 8.53318 10.288 8.84301 9.97809L11.9104 6.91074C12.2358 6.58531 12.7635 6.58531 13.0889 6.91074C13.4143 7.23619 13.4143 7.76383 13.0889 8.08926L10.2284 10.9498C9.91251 11.2657 9.75459 11.4236 9.69485 11.6286C9.63501 11.8336 9.68326 12.0512 9.77968 12.4864C10.1533 14.1737 10.4778 15.5679 10.8016 16.5059C10.9907 17.0538 11.2034 17.528 11.4728 17.8778C11.754 18.2428 12.1365 18.5185 12.6399 18.5408C12.9533 18.5546 13.2139 18.4115 13.3926 18.2787C13.5809 18.1388 13.758 17.9512 13.9223 17.7461C14.2523 17.3338 14.599 16.7633 14.944 16.1039C15.6373 14.7789 16.3715 13.0023 16.9928 11.1747C17.6137 9.34775 18.1311 7.44217 18.3803 5.85842C18.5047 5.06859 18.5662 4.33506 18.532 3.72064C18.4996 3.13797 18.3754 2.52589 17.9974 2.11881Z" fill="url(#paint0_linear_1_13296)"/>
<defs>
<linearGradient id="paint0_linear_1_13296" x1="18.2566" y1="2.15562" x2="-1.40093" y2="11.8084" gradientUnits="userSpaceOnUse">
<stop stop-color="#6895FF"/>
<stop offset="1" stop-color="#A897FF"/>
</linearGradient>
</defs>
</svg>
