<svg width="19" height="18" viewBox="0 0 19 18" fill="none" xmlns="http://www.w3.org/2000/svg">
<path opacity="0.4" d="M9.5 1.6875C9.81066 1.6875 10.0625 1.93934 10.0625 2.25C10.0625 3.75456 10.8204 5.3062 12.0071 6.49288C13.1938 7.67956 14.7454 8.4375 16.25 8.4375C16.5607 8.4375 16.8125 8.68934 16.8125 9C16.8125 9.31066 16.5607 9.5625 16.25 9.5625C14.7454 9.5625 13.1938 10.3204 12.0071 11.5071C10.8204 12.6938 10.0625 14.2454 10.0625 15.75C10.0625 16.0607 9.81066 16.3125 9.5 16.3125C9.18934 16.3125 8.9375 16.0607 8.9375 15.75C8.9375 14.2454 8.17956 12.6938 6.99288 11.5071C5.8062 10.3204 4.25456 9.5625 2.75 9.5625C2.43934 9.5625 2.1875 9.31066 2.1875 9C2.1875 8.68934 2.43934 8.4375 2.75 8.4375C4.25456 8.4375 5.8062 7.67956 6.99288 6.49288C8.17956 5.3062 8.9375 3.75456 8.9375 2.25C8.9375 1.93934 9.18934 1.6875 9.5 1.6875Z" fill="#E6A819"/>
<path d="M14.9375 0.9375C15.0976 0.9375 15.2363 1.04846 15.2715 1.20465L15.4472 1.98451C15.5671 2.51701 15.983 2.93285 16.5155 3.05281L17.2954 3.22848C17.4515 3.26366 17.5625 3.40239 17.5625 3.5625C17.5625 3.72261 17.4515 3.86134 17.2954 3.89652L16.5155 4.07219C15.983 4.19215 15.5671 4.60799 15.4472 5.14049L15.2715 5.92035C15.2363 6.07654 15.0976 6.1875 14.9375 6.1875C14.7774 6.1875 14.6387 6.07654 14.6035 5.92035L14.4278 5.14049C14.3079 4.60799 13.892 4.19215 13.3595 4.07219L12.5796 3.89652C12.4235 3.86134 12.3125 3.72261 12.3125 3.5625C12.3125 3.40239 12.4235 3.26366 12.5796 3.22848L13.3595 3.05281C13.892 2.93285 14.3079 2.51701 14.4278 1.98451L14.6035 1.20465C14.6387 1.04846 14.7774 0.9375 14.9375 0.9375Z" fill="#E6A819"/>
<path d="M4.0625 11.8125C4.22261 11.8125 4.36134 11.9235 4.39652 12.0796L4.57219 12.8595C4.69215 13.392 5.10799 13.8079 5.64049 13.9278L6.42035 14.1035C6.57654 14.1387 6.6875 14.2774 6.6875 14.4375C6.6875 14.5976 6.57654 14.7363 6.42035 14.7715L5.64049 14.9472C5.10799 15.0671 4.69215 15.483 4.57219 16.0155L4.39652 16.7954C4.36134 16.9515 4.22261 17.0625 4.0625 17.0625C3.90239 17.0625 3.76366 16.9515 3.72848 16.7954L3.55281 16.0155C3.43285 15.483 3.01701 15.0671 2.48451 14.9472L1.70465 14.7715C1.54846 14.7363 1.4375 14.5976 1.4375 14.4375C1.4375 14.2774 1.54846 14.1387 1.70465 14.1035L2.48451 13.9278C3.01701 13.8079 3.43285 13.392 3.55281 12.8595L3.72848 12.0796C3.76366 11.9235 3.90239 11.8125 4.0625 11.8125Z" fill="#E6A819"/>
</svg>
